<svg id="visual" viewBox="0 0 900 600" width="900" height="600" xmlns="http://www.w3.org/2000/svg" xmlns:xlink="http://www.w3.org/1999/xlink" version="1.1"><rect x="0" y="0" width="900" height="600" fill="#ffffff"></rect><path d="M0 201L21.5 191.5C43 182 86 163 128.8 161C171.7 159 214.3 174 257.2 164.5C300 155 343 121 385.8 122C428.7 123 471.3 159 514.2 179.7C557 200.3 600 205.7 642.8 204.7C685.7 203.7 728.3 196.3 771.2 195.7C814 195 857 201 878.5 204L900 207L900 0L878.5 0C857 0 814 0 771.2 0C728.3 0 685.7 0 642.8 0C600 0 557 0 514.2 0C471.3 0 428.7 0 385.8 0C343 0 300 0 257.2 0C214.3 0 171.7 0 128.8 0C86 0 43 0 21.5 0L0 0Z" fill="#0066FF" stroke-linecap="round" stroke-linejoin="miter"></path></svg>